<?xml version="1.0" encoding="UTF-8"?>
<!DOCTYPE svg PUBLIC "-//W3C//DTD SVG 1.1//EN" "http://www.w3.org/Graphics/SVG/1.1/DTD/svg11.dtd">
<!-- Creator: CorelDRAW 2020 (64 Bit) -->
<svg xmlns="http://www.w3.org/2000/svg" xml:space="preserve" width="52.9158mm" height="38.842mm" version="1.1" style="shape-rendering:geometricPrecision; text-rendering:geometricPrecision; image-rendering:optimizeQuality; fill-rule:evenodd; clip-rule:evenodd"
viewBox="0 0 280.49 205.89"
 xmlns:xlink="http://www.w3.org/1999/xlink"
 xmlns:xodm="http://www.corel.com/coreldraw/odm/2003">
 <defs>
  <style type="text/css">
   <![CDATA[
    .fil0 {fill:#BFFF37}
    .fil1 {fill:#BFFF37;fill-rule:nonzero}
   ]]>
  </style>
 </defs>
 <g id="Camada_x0020_1">
  <metadata id="CorelCorpID_0Corel-Layer"/>
  <g id="_1863472210416">
   <polygon class="fil0" points="-0,74.45 27.79,87.42 34.9,74.61 47.78,204.95 79.51,205.89 107.34,109.65 133.73,155.37 166.09,155.9 166.11,155.81 166.28,155.81 174.62,126.85 174.62,126.85 214.73,205.89 266.71,205.89 209.83,90.77 260.72,15.38 207.65,15.38 170.38,76.85 170.38,-0 130.52,15.28 130.99,82.02 130.52,81.98 130.52,81.98 113.47,52.45 86.52,53.5 71.81,108.41 62.83,14.98 31.82,14.02 "/>
   <path class="fil1" d="M273.6 -0c1.16,0 2.28,0.3 3.39,0.89 1.1,0.59 1.96,1.44 2.57,2.55 0.61,1.11 0.92,2.26 0.92,3.46 0,1.19 -0.3,2.33 -0.91,3.43 -0.6,1.1 -1.45,1.95 -2.55,2.55 -1.09,0.61 -2.24,0.91 -3.43,0.91 -1.19,0 -2.34,-0.3 -3.43,-0.91 -1.09,-0.6 -1.94,-1.46 -2.55,-2.55 -0.61,-1.09 -0.91,-2.24 -0.91,-3.43 0,-1.2 0.31,-2.35 0.93,-3.46 0.62,-1.1 1.48,-1.95 2.58,-2.55 1.1,-0.6 2.23,-0.89 3.39,-0.89zm0 1.14c-0.97,0 -1.91,0.25 -2.83,0.74 -0.92,0.5 -1.63,1.21 -2.15,2.13 -0.52,0.92 -0.78,1.88 -0.78,2.88 0,0.99 0.26,1.94 0.76,2.85 0.51,0.91 1.22,1.62 2.13,2.13 0.91,0.51 1.87,0.76 2.86,0.76 0.99,0 1.94,-0.26 2.86,-0.76 0.91,-0.51 1.62,-1.22 2.13,-2.13 0.51,-0.91 0.76,-1.86 0.76,-2.85 0,-1 -0.26,-1.96 -0.77,-2.88 -0.51,-0.92 -1.23,-1.63 -2.15,-2.13 -0.92,-0.5 -1.86,-0.74 -2.82,-0.74zm-3.03 9.56l0 -7.41 2.55 0c0.87,0 1.5,0.07 1.89,0.21 0.39,0.14 0.7,0.37 0.94,0.72 0.23,0.34 0.35,0.7 0.35,1.09 0,0.54 -0.19,1.01 -0.58,1.41 -0.39,0.4 -0.9,0.63 -1.54,0.68 0.26,0.11 0.47,0.24 0.63,0.39 0.3,0.29 0.66,0.78 1.1,1.47l0.9 1.45 -1.45 0 -0.66 -1.17c-0.52,-0.92 -0.94,-1.5 -1.26,-1.73 -0.22,-0.17 -0.54,-0.25 -0.96,-0.25l-0.7 0 0 3.14 -1.2 0zm1.2 -4.17l1.45 0c0.69,0 1.17,-0.1 1.42,-0.31 0.25,-0.21 0.38,-0.48 0.38,-0.82 0,-0.22 -0.06,-0.41 -0.18,-0.59 -0.12,-0.17 -0.29,-0.3 -0.5,-0.39 -0.22,-0.08 -0.62,-0.13 -1.2,-0.13l-1.36 0 0 2.23z"/>
  </g>
 </g>
</svg>
